<svg version="1.2" xmlns="http://www.w3.org/2000/svg" viewBox="0 0 1024 1024" width="1024" height="1024"><style>.a{fill:#7228d7}</style><path fill-rule="evenodd" class="a" d="m464.9 734.6c5.8 3.7 10.4 15 1 17.8-8 2.3-27.8-4.4-37.9-4.4h-112c-9.5 0-45.6 11.4-43.4-3 4.2-26.2 50-9.1 65.1-15.8 6.4-2.8 10.2-13.6 13.7-19.2 10.3-16.5 35.2-40.9 38.7-59.8 1.1-6.3-23.2-16.5-28.1-19.5-28.9-18-57.4-39.1-79-65.7-55.8-68.8-42-155.9-6.3-231 23.5-49.3 56.2-87.2 115.3-79.7 10.7 1.4 18.9 7.9 29 10.3 27.5 6.6 83.7 7.8 92.8 43.4 2.7 10.5-23.9 11.8-30.8 13.2-26.7 5.2-66.5 9.1-61.7 45.8 3.6 28.4 32.3 46.3 50.7 65 54 55.1 97.5 116.7 138.2 182 9.5 15.3 19.3 30.4 28.4 46 2.8 4.9 9.2 12 7.1 18-4.9 14.4-23-0.1-31.7-2 15.7 14.7 26.4 38.4 39 56 4.4 6.1 13.1 14.9 12.7 23-0.7 19.3-49.3 7.3-58.7 2.9-50.6-23.6-85.4-79.5-132-109.9-0.3 31.7-23.1 57.9-42 82 10.6 0 22.6-1.5 31.9 4.6zm166.1-474.2c9.9-6 18.3 5.6 25 11.8 15.8 14.8 44.1 45.8 45 68.8-8.2-4.4-21.5-6.7-28.3-12.7-9-8-22.7-40.8-36.1-40.8-8.8 0-22.7 21.9-27.2 28.5-13.6 19.6-23.2 41.7-28.5 65-2 8.9 0.1 29.2-5.2 36.1-3.4 4.6-15.4 6.5-20.7 7.9 0-59.2 21.4-131.9 76-164.6zm-174 398.6c1.5-8.6-0.3-30.7 10.1-34.1 13.2-4.3 36.4 23.2 44.9 30.9 26.9 24.4 54 48.9 82 72.1 13 10.8 29.1 22.9 47 19.1-8.6-20.8-25.7-40.4-38.4-59-5.5-8.1-11-20.1-18.9-26.1-17.5-13.3-43-20.3-62.7-30.2-57.6-28.8-123.7-61-164.3-112.7-31.6-40.2-39.3-108.7 20.3-128.3 11.9-3.9 21.9-1.4 34-0.7-3.8-12.2-7.9-22.9-6.9-36 3.2-39 52.4-47.9 83.9-51-13.5-17.3-48.5-17.1-68-20.5-25.8-4.5-42.4-16.4-70-7.7-22.1 7-37 26.8-47.8 46.2-21.9 39.5-38.8 87.6-41.1 133-5.3 105 109.3 174.4 195.9 205zm-74-341.8c-12.9 3.2-17.8-16.7-5-20.3 13.1-3.7 18.6 16.9 5 20.3zm294 24.5c49.4 17.1 91.1 64.6 93 118.3-25.8-12.8-28-38.1-44.8-59-28.7-35.7-82.6-54.9-127.2-41 6.7-37.4 52.7-27.4 79-18.3zm-122 11.3c-2.5 10.6-3.5 25.5-8.6 35-12.5 23.6-30.1 41.2-34.4 69-41.9-22.3 14.4-91.5 43-104zm129 174c-7.4 10.5-26 37.9-37.9 15.3-2.2-4.2 4.9-8.9 7.3-11.4 8.8-9.4 15.9-19.8 22.2-30.9 19.8-35.5 23.7-74.4 18.4-114 51.9 20.7 11 110.6-10 141zm-66 132c-38.6-77.2-96.2-153.2-157-214-24.5-24.5-63.8-57.9-97.9-27.4-33.5 30.1-5.9 80.5 18.9 105.4 46.6 46.7 110.5 78.2 170 105.3 21.7 9.9 43.3 23.5 66 30.7zm63.9-232.6c5.7 2.3 6.8 17.8 1.3 21.1-6.3 3.7-38.4-5.8-47.2-6.4-25-1.6-53.5 5.9-76 16.2-7.7 3.6-23.8 18.9-31.7 18.2-18.9-1.7 4.2-28.6 9.7-31.6 27.9-15.4 58-20 89-23.5 16.7-1.8 39.3-0.4 54.9 6zm127.8 111.6c3.6 9.9 12.5 31.7 6.9 41.8-4.1 7.5-17 11.7-24.6 14.5-24.5 8.8-51.1 12.1-77 9.7 15.5-17.6 30.9-19.4 52-25 7.1-1.9 23.8-4.4 27.6-11.5 3.9-7.4-6.9-27.5-10-34.5-8.6-19.4-22.1-35.5-37.6-49.9-5.9-5.4-20.1-11.5-23.5-18.6-2.3-4.9 1.8-16.1 2.5-21.5 38.9 14 70.1 57.7 83.7 95zm-154.7 46.2c-10.4-2-21.9-12.8-30-19.2-26.9-21.6-56.2-57.9-62.7-93-1.3-6.6 12.2-14.5 17.7-10.7 6.3 4.4 9.9 23.6 13.3 30.7 9.1 18.9 21.8 37.7 37.7 51.4 14.6 12.7 41.1 19.1 53 32.6-8.1 3.5-19.8 10-29 8.2zm94-28.2c-19.6 29.8-51.3 51-86 59.1-23.1 5.4-40.9 6.1-51-18.1 65.8 0 123-26.6 137-98 25.3 14.9 12.5 38 0 57zm-139.8 31.3c-8.4-0.2-15.4-18.9-2.2-19.4 14.5-0.6 22.7 20 2.2 19.4zm-250.2 142.7c14 0 38 4.7 50.8-0.8 12.8-5.5 33.8-43.4 39.2-56.2-11.1-2.4-29-17.6-39.8-15.7-6 1.1-11.1 13.1-14.2 17.7-12.1 18.1-25.2 36.1-36 55z"/></svg>